<svg xmlns="http://www.w3.org/2000/svg" viewBox="0 0 1397.59 291.23"><defs><style>.cls-1{fill:#fff;}</style></defs><g id="Layer_2" data-name="Layer 2"><g id="Layer_1-2" data-name="Layer 1"><path class="cls-1" d="M264.73,284c-4.1,16.51-15,51.26-21.14,63.26-10.77,2.43-43,9.78-71.65,9.78C63.79,357,16.45,288,16.45,213.62c0-85.78,62.79-145.2,161.33-145.2,34,0,63.24,7.5,74.63,8.65,1.3,20.93,3.82,46,6.1,63.39L251.16,142C243,113.32,233.82,96.28,210,86c-12.22-5.37-26.78-7.5-43.61-7.5-67.77,0-97.94,58.14-97.94,127.23,0,82.92,39.74,141,107.1,141,42.35,0,64-25,82.36-65.11Z" transform="translate(-16.45 -65.77)"/><path class="cls-1" d="M489.57,286.13c-2.12,14.58-9.77,53.4-12.62,64.49H274.6v-6.2c36.85-5.1,39.68-7.52,39.68-44.31V125.78c0-37.66-1.83-40.76-33-45.2V74.37H407c39.86,0,55.1-.27,60.13-.85.28,15.71,2,44.1,3.81,60.29l-6.51,1.12c-3.25-10.77-8.92-26.35-16.49-36.06-7.79-10.24-15.66-12.19-40.73-12.19H370.31c-9.81,0-11.21,1.55-11.21,11.24V198.45h45.24c31.94,0,34.1-8,39.76-35.1h6.35V246H444.1c-6.4-26.71-8.27-35.11-39.47-35.11H359.1V305c0,29.3,8.15,33.19,33.61,33.47h31c23.44,0,29.39-3.55,40-16.66,7.21-8.8,13.41-21.76,19.74-37Z" transform="translate(-16.45 -65.77)"/><path class="cls-1" d="M752.47,353.3c-2.58,0-13.88,0-18.24-.15-45.64-2.12-57.46-10-72.8-32.64-14.58-21.76-30.28-49.13-44.33-75.18C607.16,227.18,601.38,223,584.4,223H574v76.89c0,34.66,2.84,38.5,35.19,44.56v6.2H494.7v-6.2c32.05-6.21,35-9.05,35-44.56V124.56c0-34.65-2.7-38.88-35-44V74.37H604.56c32.77,0,54.62,4.12,71.3,16,15.85,10.76,25.65,28.78,25.65,50.9,0,40.1-29.45,61-54.13,71.57,7,12.51,28.46,49.23,40.66,68.36,15.55,24.59,23,35.76,32.51,46.66C730.62,339.34,737,343,753.74,347.65ZM588.61,213.65c20.69,0,34.53-1.41,45.32-10.74,13.69-11.34,18.94-27.11,18.94-52.06,0-48.26-25-67.15-53.34-67.15-11.31,0-17.85,1.15-20.7,3.27-3.27,2.28-4.82,5.55-4.82,15.83V213.65Z" transform="translate(-16.45 -65.77)"/><path class="cls-1" d="M955.36,136.23c-4.36-14.79-7-24.76-15-35-7.23-11.2-12.78-15-35.79-15H863.35v214c0,34.92,3.8,38.76,38.44,44.14v6.2H781.64v-6.2c33.26-6.5,36.89-8.82,36.89-44.14v-214h-44c-20.21,0-24.86,5.72-30.81,13.73-6.63,9.11-11.8,22.16-16.3,36.8h-7.08c2.42-23,4.55-49.49,5.55-71h5.35c6.48,8.3,11.8,8.6,24.89,8.6H929.79c11.5,0,17-1.27,23.85-8.6H959c0,18.53.87,47.19,3,69.46Z" transform="translate(-16.45 -65.77)"/><path class="cls-1" d="M1245.18,80.58c-32.38,4.27-33,14.38-34.25,33.44-.7,11.86-1.7,26.84-1.7,60.82v52.53c0,42.84-4,76.27-27.8,101.62-18.57,19.4-44.52,28-76.58,28-26.89,0-53.21-6.1-72.13-21.61-24.16-19.74-32.51-46.24-32.51-92.1v-112c0-41.39-2.55-45.47-34.28-50.72V74.37H1079v6.21c-32.28,6-34.15,9.33-34.15,50.72V244.82c0,59.1,25.73,90.61,77.69,90.61,56.35,0,72.93-32.13,72.93-107.23V174.69c0-33.83-.7-49.19-1.83-62.22-1.55-21.12-6.05-28.47-42.56-31.89V74.37h94.07Z" transform="translate(-16.45 -65.77)"/><path class="cls-1" d="M1396.38,133.53c-8.48-33.34-26.2-55.63-61-55.63-27.73,0-42.18,19.66-42.18,46.11,0,28.86,16.06,41.76,51.42,62.69,35.07,20.78,69.43,43.14,69.43,88.21,0,47.39-39.89,82.09-94,82.09-21.86,0-43.18-5.29-62.83-10.95-2.55-9.26-8.93-54.95-9.5-62.19l6.5-1.28c8.61,33.11,31.6,64.94,72.34,64.94,31.7,0,45.34-22.95,45.34-51.42,0-28.86-17.95-47.54-48-65.82-36-22-68.38-43.26-68.38-86.46,0-42.44,33.83-75.4,87.38-75.4,25.92,0,44,5.1,53.08,6,1.7,15.43,4.1,37.62,7.08,57.87Z" transform="translate(-16.45 -65.77)"/></g></g></svg>