<svg id="Layer_1" data-name="Layer 1" xmlns="http://www.w3.org/2000/svg" viewBox="0 0 1505.65 467.88"><defs><style>.cls-1{fill:#2c1676;}.cls-2{fill:#000333;}</style></defs><path class="cls-1" d="M376,448.87c-4.1,16.51-15.05,51.25-21.15,63.26-10.77,2.42-43,9.77-71.65,9.77-108.15,0-155.49-69-155.49-143.37,0-85.79,62.79-145.2,161.33-145.2,34,0,63.24,7.5,74.63,8.65,1.3,20.93,3.83,46,6.1,63.38l-7.35,1.56c-8.2-28.69-17.34-45.73-41.14-56-12.22-5.38-26.78-7.5-43.61-7.5-67.76,0-97.94,58.14-97.94,127.22,0,82.92,39.74,141,107.1,141,42.35,0,64-25,82.37-65.11Z" transform="translate(-111.27 -230.67)"/><path class="cls-1" d="M600.84,451c-2.12,14.58-9.77,53.41-12.62,64.5H385.88v-6.21c36.84-5.1,39.67-7.52,39.67-44.3V290.68c0-37.65-1.83-40.76-33-45.2v-6.2h125.8c39.86,0,55.1-.28,60.14-.85.27,15.7,2,44.09,3.8,60.28l-6.5,1.13c-3.25-10.77-8.93-26.35-16.49-36.06-7.8-10.24-15.66-12.2-40.74-12.2H481.59c-9.82,0-11.22,1.55-11.22,11.24V363.36h45.24c31.94,0,34.1-8,39.76-35.11h6.35v82.66h-6.35c-6.4-26.71-8.27-35.1-39.46-35.1H470.37V469.9c0,29.31,8.16,33.2,33.61,33.47h31c23.44,0,29.39-3.55,40-16.66,7.21-8.79,13.41-21.76,19.75-36.95Z" transform="translate(-111.27 -230.67)"/><path class="cls-1" d="M863.74,518.21c-2.57,0-13.88,0-18.24-.15-45.64-2.13-57.46-10-72.8-32.64-14.58-21.76-30.28-49.13-44.33-75.19-9.94-18.14-15.72-22.35-32.7-22.35H685.28v76.88c0,34.66,2.85,38.51,35.19,44.56v6.21H606v-6.21c32-6.2,35-9.05,35-44.56V289.47c0-34.66-2.69-38.89-35-44v-6.2H715.84c32.76,0,54.61,4.12,71.29,16C803,266,812.78,284.05,812.78,306.17c0,40.1-29.45,61-54.12,71.57,7,12.52,28.45,49.24,40.65,68.36,15.55,24.59,23,35.77,32.51,46.67,10.07,11.48,16.47,15.15,33.19,19.78ZM699.88,378.55c20.7,0,34.53-1.4,45.32-10.73,13.69-11.35,18.94-27.12,18.94-52.06,0-48.26-24.95-67.15-53.34-67.15-11.3,0-17.85,1.14-20.7,3.27-3.27,2.27-4.82,5.54-4.82,15.83V378.55Z" transform="translate(-111.27 -230.67)"/><path class="cls-1" d="M1066.63,301.14c-4.36-14.79-7-24.76-15-35-7.23-11.2-12.77-15-35.79-15H974.62v214c0,34.91,3.8,38.76,38.44,44.13v6.21H892.91v-6.21c33.26-6.5,36.89-8.82,36.89-44.13v-214h-44c-20.21,0-24.86,5.71-30.81,13.72-6.63,9.12-11.8,22.17-16.3,36.81h-7.08c2.42-22.95,4.55-49.49,5.55-71h5.35c6.49,8.31,11.8,8.61,24.89,8.61h173.7c11.49,0,17-1.28,23.84-8.61h5.38c0,18.53.87,47.2,3,69.47Z" transform="translate(-111.27 -230.67)"/><path class="cls-1" d="M1356.45,245.48c-32.38,4.27-33,14.39-34.25,33.45-.7,11.86-1.7,26.84-1.7,60.82v52.53c0,42.84-4,76.26-27.8,101.62-18.57,19.4-44.52,28-76.58,28-26.88,0-53.21-6.09-72.12-21.61-24.17-19.74-32.52-46.24-32.52-92.1v-112c0-41.4-2.55-45.48-34.27-50.73v-6.2H1190.3v6.2c-32.28,6-34.15,9.33-34.15,50.73V409.72c0,59.1,25.73,90.61,77.69,90.61,56.36,0,72.93-32.13,72.93-107.22V339.6c0-33.83-.7-49.2-1.83-62.22-1.55-21.12-6-28.48-42.56-31.9v-6.2h94.07Z" transform="translate(-111.27 -230.67)"/><path class="cls-1" d="M1507.65,298.44c-8.48-33.34-26.2-55.64-61-55.64-27.73,0-42.18,19.66-42.18,46.12,0,28.85,16.06,41.75,51.42,62.68,35.07,20.79,69.43,43.14,69.43,88.21,0,47.39-39.89,82.09-94,82.09-21.87,0-43.18-5.29-62.84-10.94-2.55-9.27-8.93-54.95-9.5-62.2l6.5-1.27c8.61,33.1,31.6,64.94,72.34,64.94,31.7,0,45.35-22.95,45.35-51.43,0-28.86-18-47.54-48-65.81-36-22-68.38-43.27-68.38-86.47,0-42.43,33.83-75.39,87.38-75.39,25.93,0,44,5.1,53.08,6,1.7,15.43,4.11,37.61,7.08,57.86Z" transform="translate(-111.27 -230.67)"/><path d="M951.05,678.63c-1.08,4-4.56,14.16-6.36,17.16a85.85,85.85,0,0,1-19.92,2.76c-29.52,0-43.19-19.8-43.19-40.56,0-25.08,18.11-40.92,45.23-40.92,9.6,0,16.92,2,20.76,2.52.6,5.52,1.08,12.12,1.8,17l-1.92.36c-2.16-7.32-4-12.6-10.68-15.12a41.69,41.69,0,0,0-13.56-2c-21.24,0-31.31,17-31.31,36,0,23.88,12,40,33.35,40,13.44,0,18.84-7.68,23.88-17.76Z" transform="translate(-111.27 -230.67)"/><path d="M1001.93,617.07c20.16,0,37.92,16.2,37.92,39.6,0,25.2-17.4,41.88-38.88,41.88-21.12,0-38-17.28-38-39.6C962.93,637.23,977.81,617.07,1001.93,617.07Zm-2.28,2.64c-13.92,0-26.4,12.48-26.4,35.76,0,23.52,12.24,40.32,30.36,40.32,14.16,0,25.92-12.24,25.92-35.4C1029.53,634.47,1016.93,619.71,999.65,619.71Z" transform="translate(-111.27 -230.67)"/><path d="M1131.53,620.19c-8.52,1.92-9.24,3.36-9.48,11.52-.12,3.12-.36,5.28-.36,15.72v50.64h-1.92l-53.88-66.36v34.44c0,11.52.24,15.24.36,19.08.24,7,2.16,8.52,11.52,10.08v1.44h-27.12v-1.44c8.88-2,10.8-3.12,11-10.2.12-3.12.36-7.56.36-19V630.63a7.13,7.13,0,0,0-1.68-5c-2.88-3.6-6.48-4.56-10.92-5.4v-1.44h16.8L1118,681.51V647.43c0-10.44-.12-12.12-.36-16.2-.48-7.68-2-9.84-12-11v-1.44h25.92Z" transform="translate(-111.27 -230.67)"/><path d="M1180.61,634.83c-2.16-8.4-5.76-15.24-16.68-15.24-9,0-13.08,6.72-13.08,13.8,0,9.24,5.16,13,14.52,18.48,9.12,5.4,19.68,11.4,19.68,24.36,0,12.6-10.56,22.32-24.6,22.32a49.23,49.23,0,0,1-17-3.48c-.72-3.24-2.52-13.8-2.76-16.08l1.68-.36c2,7.32,7.44,17.4,19.8,17.4,10.2,0,14.52-8,14.52-16.08,0-9.24-6.24-14.28-14.64-19.44-9-5.52-18.84-11.28-18.84-23.4,0-11.28,9.24-20,22.8-20a62.26,62.26,0,0,1,14.52,1.92c.48,4.2,1.08,9.84,1.92,15.48Z" transform="translate(-111.27 -230.67)"/><path d="M1271.57,620.19c-8.52,1.44-9,3.36-9.36,9.6-.12,2.88-.48,6.72-.48,17.64v16.08c0,11.16-1.2,20.52-8.16,27.6-5.4,5.4-13,7.44-21,7.44-7.2,0-14.4-1.8-19-5.4-7.68-6.12-10-13.68-10-27.72V633c0-10.44-.72-11.28-9.6-12.84v-1.44h27.72v1.44c-8.88,1.68-9.72,2.4-9.72,12.84v31c0,18.48,6.72,29.64,24.12,29.64,18.72,0,21.84-11.88,21.84-30.12v-16.2c0-10.8-.12-14.28-.36-17.88-.36-6.12-1.32-8-11.16-9.24v-1.44h25.08Z" transform="translate(-111.27 -230.67)"/><path d="M1337.57,678.63c-.6,3.36-3,13.8-4.32,18.12h-53.16v-1.44c10.68-1.44,11.28-2.4,11.28-12.24v-51c0-9.84-1.08-10.68-10.44-11.88v-1.44h28.68v1.44c-8.88,1.56-9.72,2-9.72,11.88v52.68c0,8.52,1.44,8.88,9.48,8.88,2.28,0,6-.12,8-.12,7.08,0,10-.12,13.08-4.68a46.49,46.49,0,0,0,5.4-10.68Z" transform="translate(-111.27 -230.67)"/><path d="M1398.17,635.67a49.54,49.54,0,0,0-2.28-7.08c-2-4.8-3.84-6.72-11-6.72h-15v61.68c0,9,.84,10.32,11.4,11.76v1.44h-31v-1.44c10.56-1.68,11-2.88,11-11.76V621.87h-15.24c-6.72,0-7.8,2.16-9.48,5.28a48.8,48.8,0,0,0-3.12,8.52h-1.92c.84-6.48,1.44-13,1.8-19h1.2c1.44,1.8,2.16,2,6.48,2h50.76c3.48,0,4.56-.36,5.64-2h1.44c0,4.92.48,12,1.08,18.6Z" transform="translate(-111.27 -230.67)"/><path d="M1409.81,696.75v-1.44c9.48-1.68,10.44-2.76,10.44-12v-51c0-10-.84-10.56-10.44-12.12v-1.44h29.52v1.44c-9.72,1.32-10.56,2.16-10.56,12.12v51c0,9.12.84,10.2,10.56,12v1.44Z" transform="translate(-111.27 -230.67)"/><path d="M1530.16,620.19c-8.52,1.92-9.24,3.36-9.48,11.52-.12,3.12-.36,5.28-.36,15.72v50.64h-1.92l-53.88-66.36v34.44c0,11.52.24,15.24.36,19.08.24,7,2.16,8.52,11.52,10.08v1.44h-27.11v-1.44c8.88-2,10.79-3.12,11-10.2.12-3.12.36-7.56.36-19V630.63a7.09,7.09,0,0,0-1.68-5c-2.87-3.6-6.47-4.56-10.92-5.4v-1.44h16.8l51.72,62.76V647.43c0-10.44-.12-12.12-.36-16.2-.48-7.68-2-9.84-12-11v-1.44h25.92Z" transform="translate(-111.27 -230.67)"/><path d="M1616.92,663.51c-7.08,1.32-7.56,2.4-7.56,9.36v10c0,4.44.12,8.4,1.08,11.4-7.2,1.56-17.88,4.32-26.64,4.32-25.92,0-42.36-15.72-42.36-40.68,0-27.36,21.24-40.8,44.4-40.8,11.52,0,19.56,2.4,22.44,2.52.24,4,.84,12.72,1.68,17.88l-1.68.48c-2.4-8.88-5.4-14.28-13.92-16.68a43.85,43.85,0,0,0-11.64-1.44c-19.68,0-31,13.56-31,36.6,0,18.84,8.88,39.36,33.6,39.36,4.08,0,8.76-.6,11.28-2,2.76-1.56,4.08-3.24,4.08-9.48v-10.2c0-8.52-.6-9.36-11.16-10.56v-1.68h27.36Z" transform="translate(-111.27 -230.67)"/><rect class="cls-2" y="336.7" width="1498.18" height="13.82"/></svg>