<?xml version="1.0" encoding="utf-8"?>
<!-- Generator: Adobe Illustrator 24.1.0, SVG Export Plug-In . SVG Version: 6.00 Build 0)  -->
<svg version="1.1" id="e6c7a302-1d79-4c46-b758-a00a31f9e26b"
	 xmlns="http://www.w3.org/2000/svg" xmlns:xlink="http://www.w3.org/1999/xlink" x="0px" y="0px" viewBox="0 0 867.2 752.7"
	 style="enable-background:new 0 0 867.2 752.7;" xml:space="preserve">
<style type="text/css">
	.st0{fill:url(#SVGID_1_);}
	.st1{fill:#FFFFFF;}
	.st2{opacity:0.6;}
	.st3{fill:#066594;}
	.st4{fill:url(#SVGID_2_);}
	.st5{fill:url(#SVGID_3_);}
	.st6{fill:#1D4E97;}
	.st7{fill:url(#SVGID_4_);}
	.st8{fill:#F55F44;}
	.st9{fill:url(#SVGID_5_);}
	.st10{fill:url(#SVGID_6_);}
	.st11{fill:url(#SVGID_7_);}
	.st12{fill:url(#SVGID_8_);}
	.st13{fill:url(#SVGID_9_);}
	.st14{fill:url(#SVGID_10_);}
	.st15{fill:#6C63FF;}
	.st16{fill:url(#SVGID_11_);}
	.st17{fill:url(#SVGID_12_);}
	.st18{fill:#47E6B1;}
	.st19{opacity:0.25;fill:#535461;enable-background:new    ;}
	.st20{fill:none;stroke:url(#SVGID_13_);stroke-width:2;stroke-miterlimit:10;}
	.st21{fill:none;stroke:#535461;stroke-width:2;stroke-miterlimit:10;}
	.st22{fill:none;stroke:url(#SVGID_14_);stroke-width:2;stroke-miterlimit:10;}
	.st23{fill:none;stroke:url(#SVGID_15_);stroke-width:2;stroke-miterlimit:10;}
	.st24{opacity:0.7;}
	.st25{fill:url(#SVGID_16_);}
	.st26{fill:#535461;}
	.st27{opacity:0.1;fill:#FFFFFF;enable-background:new    ;}
	.st28{fill:#4D8AF0;}
	.st29{fill:#3AD29F;}
	.st30{fill:url(#SVGID_17_);}
	.st31{fill:#EEEEEE;}
</style>
<linearGradient id="SVGID_1_" gradientUnits="userSpaceOnUse" x1="264.2433" y1="178.44" x2="264.2433" y2="242.82" gradientTransform="matrix(-0.9583 0.2857 -0.2857 -0.9583 770.6812 625.6865)">
	<stop  offset="0" style="stop-color:#808080;stop-opacity:0.25"/>
	<stop  offset="0.54" style="stop-color:#808080;stop-opacity:0.12"/>
	<stop  offset="1" style="stop-color:#808080;stop-opacity:0.1"/>
</linearGradient>
<polygon class="st0" points="397.9,483.4 498.3,453.5 516.7,515.2 416.3,545.1 "/>
<rect x="406" y="468.9" transform="matrix(0.9583 -0.2857 0.2857 0.9583 -123.5083 151.2532)" class="st1" width="101.2" height="60.1"/>
<g class="st2">
	
		<rect x="406.2" y="485.6" transform="matrix(0.9583 -0.2857 0.2857 0.9583 -122.8879 138.3312)" class="st3" width="12.9" height="9.5"/>
	
		<rect x="421.8" y="501.4" transform="matrix(0.9583 -0.2857 0.2857 0.9583 -125.079 148.5298)" class="st3" width="49.4" height="3.1"/>
	
		<rect x="437" y="506.9" transform="matrix(0.9583 -0.2857 0.2857 0.9583 -126.1523 151.1609)" class="st3" width="36" height="2.1"/>
</g>
<linearGradient id="SVGID_2_" gradientUnits="userSpaceOnUse" x1="56.5079" y1="398.593" x2="56.5079" y2="462.973" gradientTransform="matrix(-0.9816 -0.1912 0.1912 -0.9816 673.1122 782.4984)">
	<stop  offset="0" style="stop-color:#808080;stop-opacity:0.25"/>
	<stop  offset="0.54" style="stop-color:#808080;stop-opacity:0.12"/>
	<stop  offset="1" style="stop-color:#808080;stop-opacity:0.1"/>
</linearGradient>
<polygon class="st4" points="642.4,370.4 654.7,307.2 757.6,327.3 745.3,390.5 "/>
<rect x="668" y="298.6" transform="matrix(0.1903 -0.9817 0.9817 0.1903 222.3992 967.838)" class="st1" width="60" height="101"/>
<g class="st2">
	
		<rect x="659.8" y="313.9" transform="matrix(0.1912 -0.9816 0.9816 0.1912 223.0908 911.3418)" class="st3" width="9.5" height="12.9"/>
	
		<rect x="687.1" y="322.5" transform="matrix(0.1912 -0.9816 0.9816 0.1912 216.252 956.7811)" class="st3" width="3.1" height="49.4"/>
	
		<rect x="692.8" y="337.5" transform="matrix(0.1912 -0.9816 0.9816 0.1912 212.2446 968.6498)" class="st3" width="2.1" height="36"/>
</g>
<linearGradient id="SVGID_3_" gradientUnits="userSpaceOnUse" x1="-84.5133" y1="195.6507" x2="-84.5133" y2="260.0308" gradientTransform="matrix(-0.3979 -0.9174 0.9174 -0.3979 467.3359 506.0057)">
	<stop  offset="0" style="stop-color:#808080;stop-opacity:0.25"/>
	<stop  offset="0.54" style="stop-color:#808080;stop-opacity:0.12"/>
	<stop  offset="1" style="stop-color:#808080;stop-opacity:0.1"/>
</linearGradient>
<polygon class="st5" points="659.6,457.6 718.7,432 760.4,528.1 701.3,553.7 "/>
<rect x="680.3" y="441.6" transform="matrix(0.9174 -0.3979 0.3979 0.9174 -137.2087 323.314)" class="st1" width="60.1" height="101.2"/>
<g class="st2">
	
		<rect x="708.7" y="441" transform="matrix(0.9174 -0.3979 0.3979 0.9174 -119.152 320.8665)" class="st6" width="9.5" height="12.9"/>
	
		<rect x="703.4" y="457.9" transform="matrix(0.9174 -0.3979 0.3979 0.9174 -133.8295 320.3919)" class="st6" width="3.1" height="49.4"/>
	
		<rect x="700" y="473.6" transform="matrix(0.9174 -0.3979 0.3979 0.9174 -137.7443 319.5611)" class="st6" width="2.1" height="36"/>
</g>
<linearGradient id="SVGID_4_" gradientUnits="userSpaceOnUse" x1="241.2334" y1="488.25" x2="241.2334" y2="552.63" gradientTransform="matrix(-0.9583 0.2857 -0.2857 -0.9583 770.6821 625.6685)">
	<stop  offset="0" style="stop-color:#808080;stop-opacity:0.25"/>
	<stop  offset="0.54" style="stop-color:#808080;stop-opacity:0.12"/>
	<stop  offset="1" style="stop-color:#808080;stop-opacity:0.1"/>
</linearGradient>
<polygon class="st7" points="331.4,180 431.8,150 450.2,211.7 349.8,241.6 "/>
<rect x="339.6" y="165.4" transform="matrix(0.9583 -0.2857 0.2857 0.9583 -39.5775 119.6189)" class="st1" width="101.2" height="60.1"/>
<g class="st2">
	
		<rect x="339.7" y="182.1" transform="matrix(0.9583 -0.2857 0.2857 0.9583 -38.9648 106.6818)" class="st8" width="12.9" height="9.5"/>
	
		<rect x="355.3" y="197.9" transform="matrix(0.9583 -0.2857 0.2857 0.9583 -41.1547 116.883)" class="st8" width="49.4" height="3.1"/>
	
		<rect x="370.5" y="203.5" transform="matrix(0.9583 -0.2857 0.2857 0.9583 -42.2293 119.5115)" class="st8" width="36" height="2.1"/>
</g>
<linearGradient id="SVGID_5_" gradientUnits="userSpaceOnUse" x1="179.7779" y1="683.7629" x2="179.7779" y2="748.1429" gradientTransform="matrix(-0.9816 -0.1912 0.1912 -0.9816 673.1165 782.4986)">
	<stop  offset="0" style="stop-color:#808080;stop-opacity:0.25"/>
	<stop  offset="0.54" style="stop-color:#808080;stop-opacity:0.12"/>
	<stop  offset="1" style="stop-color:#808080;stop-opacity:0.1"/>
</linearGradient>
<polygon class="st9" points="575.9,67 588.2,3.8 691.1,23.8 678.8,87 "/>
<rect x="603.1" y="-5.8" transform="matrix(0.1912 -0.9816 0.9816 0.1912 468.1736 657.6645)" class="st1" width="60.1" height="101.2"/>
<g class="st2">
	
		<rect x="593.3" y="10.4" transform="matrix(0.1912 -0.9816 0.9816 0.1912 467.187 600.6234)" class="st3" width="9.5" height="12.9"/>
	
		<rect x="620.6" y="19" transform="matrix(0.1912 -0.9816 0.9816 0.1912 460.3483 646.0627)" class="st3" width="3.1" height="49.4"/>
	<rect x="626.4" y="34" transform="matrix(0.1912 -0.9816 0.9816 0.1912 456.3499 657.9268)" class="st3" width="2.1" height="36"/>
</g>
<linearGradient id="SVGID_6_" gradientUnits="userSpaceOnUse" x1="220.3567" y1="255.4108" x2="220.3567" y2="319.7908" gradientTransform="matrix(-0.3979 -0.9174 0.9174 -0.3979 467.3404 506.0111)">
	<stop  offset="0" style="stop-color:#808080;stop-opacity:0.25"/>
	<stop  offset="0.54" style="stop-color:#808080;stop-opacity:0.12"/>
	<stop  offset="1" style="stop-color:#808080;stop-opacity:0.1"/>
</linearGradient>
<polygon class="st10" points="593.1,154.2 652.2,128.5 693.9,224.6 634.8,250.3 "/>
<rect x="613.8" y="138.1" transform="matrix(0.9174 -0.3979 0.3979 0.9174 -21.9343 271.7921)" class="st1" width="60.1" height="101.2"/>
<g class="st2">
	
		<rect x="642.2" y="137.6" transform="matrix(0.9174 -0.3979 0.3979 0.9174 -3.8791 269.3469)" class="st6" width="9.5" height="12.9"/>
	
		<rect x="636.9" y="154.4" transform="matrix(0.9174 -0.3979 0.3979 0.9174 -18.5576 268.8684)" class="st6" width="3.1" height="49.4"/>
	
		<rect x="633.5" y="170.1" transform="matrix(0.9174 -0.3979 0.3979 0.9174 -22.4756 268.0399)" class="st6" width="2.1" height="36"/>
</g>
<linearGradient id="SVGID_7_" gradientUnits="userSpaceOnUse" x1="576.7734" y1="349.96" x2="576.7734" y2="414.34" gradientTransform="matrix(-0.9583 0.2857 -0.2857 -0.9583 770.6782 625.6754)">
	<stop  offset="0" style="stop-color:#808080;stop-opacity:0.25"/>
	<stop  offset="0.54" style="stop-color:#808080;stop-opacity:0.12"/>
	<stop  offset="1" style="stop-color:#808080;stop-opacity:0.1"/>
</linearGradient>
<polygon class="st11" points="49.4,408.3 149.8,378.4 168.2,440.1 67.8,470 "/>
<rect x="57.5" y="393.8" transform="matrix(0.9583 -0.2857 0.2857 0.9583 -116.5807 48.5615)" class="st1" width="101.2" height="60.1"/>
<g class="st2">
	
		<rect x="57.7" y="410.6" transform="matrix(0.9583 -0.2857 0.2857 0.9583 -115.9773 35.6394)" class="st3" width="12.9" height="9.5"/>
	
		<rect x="73.3" y="426.4" transform="matrix(0.9583 -0.2857 0.2857 0.9583 -118.1672 45.8406)" class="st3" width="49.4" height="3.1"/>
	
		<rect x="88.5" y="431.9" transform="matrix(0.9583 -0.2857 0.2857 0.9583 -119.2405 48.4717)" class="st3" width="36" height="2.1"/>
</g>
<linearGradient id="SVGID_8_" gradientUnits="userSpaceOnUse" x1="412.9379" y1="405.663" x2="412.9379" y2="470.043" gradientTransform="matrix(-0.9816 -0.1912 0.1912 -0.9816 673.1161 782.5062)">
	<stop  offset="0" style="stop-color:#808080;stop-opacity:0.25"/>
	<stop  offset="0.54" style="stop-color:#808080;stop-opacity:0.12"/>
	<stop  offset="1" style="stop-color:#808080;stop-opacity:0.1"/>
</linearGradient>
<polygon class="st12" points="293.9,295.4 306.2,232.2 409.1,252.2 396.7,315.4 "/>
<rect x="320" y="223.1" transform="matrix(0.1903 -0.9817 0.9817 0.1903 14.7891 565.0683)" class="st1" width="60" height="101"/>
<g class="st2">
	
		<rect x="311.2" y="238.8" transform="matrix(0.1912 -0.9816 0.9816 0.1912 14.8793 508.5358)" class="st8" width="9.5" height="12.9"/>
	
		<rect x="338.6" y="247.4" transform="matrix(0.1912 -0.9816 0.9816 0.1912 8.0466 553.9863)" class="st8" width="3.1" height="49.4"/>
	
		<rect x="344.3" y="262.5" transform="matrix(0.1912 -0.9816 0.9816 0.1912 4.0391 565.8551)" class="st8" width="2.1" height="36.1"/>
</g>
<linearGradient id="SVGID_9_" gradientUnits="userSpaceOnUse" x1="123.0367" y1="-94.2092" x2="123.0367" y2="-29.8292" gradientTransform="matrix(-0.3979 -0.9174 0.9174 -0.3979 467.3402 506.0035)">
	<stop  offset="0" style="stop-color:#808080;stop-opacity:0.25"/>
	<stop  offset="0.54" style="stop-color:#808080;stop-opacity:0.12"/>
	<stop  offset="1" style="stop-color:#808080;stop-opacity:0.1"/>
</linearGradient>
<polygon class="st13" points="311.1,382.6 370.2,356.9 411.9,453.1 352.8,478.7 "/>
<rect x="331.8" y="366.5" transform="matrix(0.9174 -0.3979 0.3979 0.9174 -136.1203 178.4288)" class="st1" width="60.1" height="101.2"/>
<g class="st2">
	
		<rect x="360.2" y="366" transform="matrix(0.9174 -0.3979 0.3979 0.9174 -118.066 175.9802)" class="st6" width="9.5" height="12.9"/>
	
		<rect x="354.9" y="382.8" transform="matrix(0.9174 -0.3979 0.3979 0.9174 -132.7396 175.5048)" class="st6" width="3.1" height="49.4"/>
	
		<rect x="351.5" y="398.5" transform="matrix(0.9174 -0.3979 0.3979 0.9174 -136.6562 174.6757)" class="st6" width="2.1" height="36"/>
</g>
<linearGradient id="SVGID_10_" gradientUnits="userSpaceOnUse" x1="513.6734" y1="520.2599" x2="513.6734" y2="584.64" gradientTransform="matrix(-0.9583 0.2857 -0.2857 -0.9583 770.6737 625.6768)">
	<stop  offset="0" style="stop-color:#808080;stop-opacity:0.25"/>
	<stop  offset="0.54" style="stop-color:#808080;stop-opacity:0.12"/>
	<stop  offset="1" style="stop-color:#808080;stop-opacity:0.1"/>
</linearGradient>
<polygon class="st14" points="61.2,227.1 161.6,197.2 180,258.9 79.6,288.8 "/>
<rect x="71" y="211.8" transform="matrix(0.9573 -0.2892 0.2892 0.9573 -64.753 45.557)" class="st1" width="101.5" height="60.3"/>
<g class="st2">
	
		<rect x="69.5" y="229.3" transform="matrix(0.9583 -0.2857 0.2857 0.9583 -63.7124 31.4529)" class="st15" width="12.9" height="9.5"/>
	
		<rect x="85.1" y="245.2" transform="matrix(0.9583 -0.2857 0.2857 0.9583 -65.9035 41.6515)" class="st15" width="49.4" height="3.1"/>
	
		<rect x="100.3" y="250.7" transform="matrix(0.9583 -0.2857 0.2857 0.9583 -66.9769 44.2826)" class="st15" width="36" height="2.1"/>
</g>
<linearGradient id="SVGID_11_" gradientUnits="userSpaceOnUse" x1="436.2579" y1="585.8192" x2="436.2579" y2="650.1992" gradientTransform="matrix(-0.98 -0.19 0.19 -0.98 672.516 781.7415)">
	<stop  offset="0" style="stop-color:#808080;stop-opacity:0.25"/>
	<stop  offset="0.54" style="stop-color:#808080;stop-opacity:0.12"/>
	<stop  offset="1" style="stop-color:#808080;stop-opacity:0.1"/>
</linearGradient>
<polygon class="st16" points="305,114.8 317.2,51.7 419.9,71.6 407.6,134.7 "/>
<rect x="332.9" y="41.3" transform="matrix(0.1912 -0.9816 0.9816 0.1912 203.287 430.5885)" class="st1" width="60.1" height="101.2"/>
<g class="st2">
	
		<rect x="323" y="57.6" transform="matrix(0.1912 -0.9816 0.9816 0.1912 202.3017 373.5473)" class="st3" width="9.5" height="12.9"/>
	
		<rect x="350.4" y="66.2" transform="matrix(0.1912 -0.9816 0.9816 0.1912 195.4741 418.9804)" class="st3" width="3.1" height="49.4"/>
	
		<rect x="356.1" y="81.2" transform="matrix(0.1912 -0.9816 0.9816 0.1912 191.4585 430.8395)" class="st3" width="2.1" height="36.1"/>
</g>
<linearGradient id="SVGID_12_" gradientUnits="userSpaceOnUse" x1="284.5967" y1="-11.2692" x2="284.5967" y2="53.1108" gradientTransform="matrix(-0.3979 -0.9174 0.9174 -0.3979 467.3421 506.0074)">
	<stop  offset="0" style="stop-color:#808080;stop-opacity:0.25"/>
	<stop  offset="0.54" style="stop-color:#808080;stop-opacity:0.12"/>
	<stop  offset="1" style="stop-color:#808080;stop-opacity:0.1"/>
</linearGradient>
<polygon class="st17" points="322.9,201.3 382,175.7 423.7,271.8 364.6,297.5 "/>
<rect x="343.5" y="185.3" transform="matrix(0.9174 -0.3979 0.3979 0.9174 -63.0325 168.1537)" class="st1" width="60.1" height="101.2"/>
<g class="st2">
	
		<rect x="372" y="184.8" transform="matrix(0.9174 -0.3979 0.3979 0.9174 -44.9746 165.7108)" class="st18" width="9.5" height="12.9"/>
	
		<rect x="366.7" y="201.6" transform="matrix(0.9174 -0.3979 0.3979 0.9174 -59.6531 165.2323)" class="st18" width="3.1" height="49.4"/>
	
		<rect x="363.3" y="217.3" transform="matrix(0.9174 -0.3979 0.3979 0.9174 -63.5615 164.404)" class="st18" width="2.1" height="36"/>
</g>
<circle class="st19" cx="63.9" cy="61.3" r="5.5"/>
<circle class="st19" cx="635" cy="540.4" r="5.5"/>
<circle class="st19" cx="151.8" cy="513.2" r="5.5"/>
<circle class="st19" cx="685.8" cy="437" r="5.5"/>
<circle class="st19" cx="737.3" cy="186.1" r="5.5"/>
<polygon class="st19" points="333.4,4.9 328.6,4.9 328.6,0 326.6,0 326.6,4.9 321.7,4.9 321.7,6.8 326.6,6.8 326.6,11.7 328.6,11.7 
	328.6,6.8 333.4,6.8 "/>
<polygon class="st19" points="146.3,79.4 141.4,79.4 141.4,74.5 139.4,74.5 139.4,79.4 134.6,79.4 134.6,81.4 139.4,81.4 
	139.4,86.3 141.4,86.3 141.4,81.4 146.3,81.4 "/>
<polygon class="st19" points="70.2,357.1 65.3,357.1 65.3,352.3 63.3,352.3 63.3,357.1 58.5,357.1 58.5,359.1 63.3,359.1 63.3,364 
	65.3,364 65.3,359.1 70.2,359.1 "/>
<polygon class="st19" points="59.2,159.1 54.4,159.1 54.4,154.2 52.4,154.2 52.4,159.1 47.5,159.1 47.5,161.1 52.4,161.1 
	52.4,165.9 54.4,165.9 54.4,161.1 59.2,161.1 "/>
<polygon class="st19" points="11.7,295.2 6.8,295.2 6.8,290.3 4.9,290.3 4.9,295.2 0,295.2 0,297.1 4.9,297.1 4.9,302 6.8,302 
	6.8,297.1 11.7,297.1 "/>
<polygon class="st19" points="867.2,225 862.3,225 862.3,220.1 860.3,220.1 860.3,225 855.5,225 855.5,227 860.3,227 860.3,231.8 
	862.3,231.8 862.3,227 867.2,227 "/>
<polygon class="st19" points="697.8,288.3 692.9,288.3 692.9,283.4 690.9,283.4 690.9,288.3 686,288.3 686,290.2 690.9,290.2 
	690.9,295.1 692.9,295.1 692.9,290.2 697.8,290.2 "/>
<polygon class="st19" points="553.1,117.6 548.2,117.6 548.2,112.8 546.2,112.8 546.2,117.6 541.4,117.6 541.4,119.6 546.2,119.6 
	546.2,124.5 548.2,124.5 548.2,119.6 553.1,119.6 "/>
<linearGradient id="SVGID_13_" gradientUnits="userSpaceOnUse" x1="438.2179" y1="186.6447" x2="541.3151" y2="186.6447" gradientTransform="matrix(1 0 0 -1 -166.4 680.36)">
	<stop  offset="0" style="stop-color:#808080;stop-opacity:0.25"/>
	<stop  offset="0.54" style="stop-color:#808080;stop-opacity:0.12"/>
	<stop  offset="1" style="stop-color:#808080;stop-opacity:0.1"/>
</linearGradient>
<path class="st20" d="M273.9,395.7c-3.5,11.4,1.8,24.8,12,30.8c4.3,2.5,9.2,3.8,13.4,6.5c9,5.9,12.6,17.2,15.6,27.6
	c3.4,12,6.8,24.6,3.7,36.6c-2,7.7-6.5,14.4-9,21.9c-2.1,6.3-2.9,12.9-2.2,19.5c0.4,3.5,1.3,7.1,3.6,9.7c3.5,3.7,9,4.3,14,5.2
	c21.5,4.1,39.7,18.2,49,38"/>
<path class="st21" d="M275,395.7c-3.5,11.4,1.8,24.8,12,30.8c4.3,2.5,9.2,3.8,13.4,6.5c9,5.9,12.6,17.2,15.6,27.6
	c3.4,12,6.8,24.6,3.7,36.6c-2,7.7-6.5,14.4-9,21.9c-2.1,6.3-2.9,12.9-2.2,19.5c0.4,3.5,1.3,7.1,3.6,9.7c3.5,3.7,9,4.3,14,5.2
	c21.5,4.1,39.7,18.2,49,38"/>
<linearGradient id="SVGID_14_" gradientUnits="userSpaceOnUse" x1="554.4595" y1="228.9026" x2="586.4227" y2="228.9026" gradientTransform="matrix(1 0 0 -1 -166.4 680.36)">
	<stop  offset="0" style="stop-color:#808080;stop-opacity:0.25"/>
	<stop  offset="0.54" style="stop-color:#808080;stop-opacity:0.12"/>
	<stop  offset="1" style="stop-color:#808080;stop-opacity:0.1"/>
</linearGradient>
<path class="st22" d="M407.4,310.9c-8.6,12-17.6,25-18.3,39.8c-1.1,22.7,17,41.3,25.2,62.6c7.1,18.9,6.2,39.9-2.5,58.2
	c-4,8.2-9.6,16.3-8.9,25.4c0.4,5.5,3.2,10.6,5.4,15.7c11.1,25.9,9.2,55.5-5.1,79.7"/>
<path class="st21" d="M408.5,310.9c-8.6,12-17.6,25-18.3,39.8c-1.1,22.7,17,41.3,25.2,62.6c7.1,18.9,6.2,39.9-2.5,58.2
	c-4,8.2-9.6,16.3-8.9,25.4c0.4,5.5,3.2,10.6,5.4,15.7c11.1,25.9,9.2,55.5-5.1,79.7"/>
<linearGradient id="SVGID_15_" gradientUnits="userSpaceOnUse" x1="669.68" y1="171.3206" x2="700.571" y2="171.3206" gradientTransform="matrix(1 0 0 -1 -166.4 680.36)">
	<stop  offset="0" style="stop-color:#808080;stop-opacity:0.25"/>
	<stop  offset="0.54" style="stop-color:#808080;stop-opacity:0.12"/>
	<stop  offset="1" style="stop-color:#808080;stop-opacity:0.1"/>
</linearGradient>
<path class="st23" d="M528.6,419.1l4.2,34c0.5,4.5,1,9.5-1.4,13.3c-2.3,3.7-6.6,5.4-10,8.1c-11,8.8-10,25.8-6.2,39.5
	c3.8,13.6,9.3,28.3,4,41.4c-2.2,5.4-6,10-8.9,15c-4.9,8.7-6.8,18.7-5.5,28.6"/>
<path class="st21" d="M529.6,419.1l4.2,34c0.5,4.5,1,9.5-1.4,13.3c-2.3,3.7-6.6,5.4-10,8.1c-11,8.8-10,25.8-6.2,39.5
	s9.3,28.3,4,41.4c-2.2,5.4-6,10-8.9,15c-4.9,8.7-6.8,18.7-5.5,28.6"/>
<g class="st24">
	
		<linearGradient id="SVGID_16_" gradientUnits="userSpaceOnUse" x1="571.06" y1="247.4099" x2="571.06" y2="614.9799" gradientTransform="matrix(1 0 0 -1 -166.4 680.36)">
		<stop  offset="0" style="stop-color:#808080;stop-opacity:0.25"/>
		<stop  offset="0.54" style="stop-color:#808080;stop-opacity:0.12"/>
		<stop  offset="1" style="stop-color:#808080;stop-opacity:0.1"/>
	</linearGradient>
	<path class="st25" d="M636.8,279.3c0-55.7-45.3-100.9-101-100.8c-10.6,0-21,1.7-31.1,4.9c0.8-5.7,1.3-11.4,1.3-17.1
		c0.3-55.7-44.5-101.1-100.2-101.5c-53.4-0.3-97.7,41-101.2,94.2c-53-17.2-109.9,11.8-127.2,64.8c-3.3,10.1-4.9,20.6-4.9,31.1
		c0,50.6,37.3,122.6,85.9,135.3l7.5,4.3l-4.1,14.1h24.3l-5.3-14.1l7.5-4.3c37.5-9.9,68.3-55,80.4-98.4c6.6,4.4,13.9,7.7,21.5,9.8
		l7.5,4.3l-4.1,14.1H418l-5.3-14.1l7.5-4.3c5.6-1.5,11-3.7,16-6.5c6.5,48.6,41,108.1,84.7,119.5l7.6,4.3l-4.1,14.1h24.3l-5.3-14.1
		l7.5-4.3C599.6,401.8,636.8,329.8,636.8,279.3z"/>
</g>
<polygon class="st8" points="289.9,403.4 266.4,403.4 270.5,389.3 284.6,389.3 "/>
<path class="st8" d="M375.2,254.7c0,53.9-43.7,132.8-97.6,132.8s-97.6-79-97.6-132.8c0-53.9,43.7-97.6,97.6-97.5
	C331.5,157.2,375.1,200.8,375.2,254.7L375.2,254.7z"/>
<polygon class="st26" points="284.6,389.9 270.5,389.9 262.3,385.2 292.9,385.2 "/>
<path class="st27" d="M242.3,178.9c0,0-41.1,22.3-47,67"/>
<polygon class="st28" points="417.5,317.6 394,317.6 398.1,303.5 412.3,303.5 "/>
<path class="st28" d="M502.8,168.9c0,53.9-43.7,132.9-97.6,132.9s-97.6-78.9-97.6-132.9c0-53.9,43.7-97.6,97.6-97.6
	S502.8,115,502.8,168.9L502.8,168.9z"/>
<polygon class="st26" points="412.3,304.1 398.1,304.1 389.9,299.4 420.5,299.4 "/>
<path class="st27" d="M369.9,93.1c0,0-41.1,22.3-47,67"/>
<polygon class="st29" points="544.1,427 520.6,427 524.7,412.9 538.8,412.9 "/>
<path class="st29" d="M629.3,278.3c0,53.9-43.7,132.8-97.6,132.8s-97.6-79-97.6-132.8c0-53.9,43.7-97.6,97.6-97.6
	S629.3,224.4,629.3,278.3z"/>
<polygon class="st26" points="538.8,413.5 524.7,413.5 516.5,408.8 547,408.8 "/>
<path class="st27" d="M496.5,202.4c0,0-41.2,22.3-47,67"/>
<linearGradient id="SVGID_17_" gradientUnits="userSpaceOnUse" x1="275.7784" y1="-24.2885" x2="275.7784" y2="141.5614" gradientTransform="matrix(-1 5.000000e-02 -5.000000e-02 -1 713.093 709.4825)">
	<stop  offset="0" style="stop-color:#808080;stop-opacity:0.25"/>
	<stop  offset="0.54" style="stop-color:#808080;stop-opacity:0.12"/>
	<stop  offset="1" style="stop-color:#808080;stop-opacity:0.1"/>
</linearGradient>
<polygon class="st30" points="295.3,588.5 565.2,575 573.5,740.8 303.6,754.3 "/>
<rect x="302.7" y="584.3" transform="matrix(0.9987 -5.111586e-02 5.111586e-02 0.9987 -33.255 23.0026)" class="st31" width="260.7" height="154.8"/>
<rect x="311.4" y="601.4" transform="matrix(0.9987 -5.111573e-02 5.111573e-02 0.9987 -30.9392 17.5666)" class="st3" width="33.2" height="24.5"/>
<rect x="341.4" y="661.9" transform="matrix(0.9987 -5.111573e-02 5.111573e-02 0.9987 -33.5063 21.5745)" class="st3" width="127.4" height="8"/>
<rect x="376.8" y="680.9" transform="matrix(0.9987 -5.111573e-02 5.111573e-02 0.9987 -34.3856 22.5261)" class="st3" width="92.9" height="5.3"/>
</svg>
